PathFileType	4	(X/Y/Z)	trial_0_0-299.trc
DataRate	CameraRate	NumFrames	NumMarkers	Units	OrigDataRate	OrigDataStartFrame	OrigNumFrames
60	60	8	21	m	60	112	299
Frame#	Time	RHip			RKnee			RAnkle			RBigToe			RSmallToe			RHeel			LHip			LKnee			LAnkle			LBigToe			LSmallToe			LHeel			Neck			Head			Nose			RShoulder			RElbow			RWrist			LShoulder			LElbow			LWrist		
		X1	Y1	Z1	X2	Y2	Z2	X3	Y3	Z3	X4	Y4	Z4	X5	Y5	Z5	X6	Y6	Z6	X7	Y7	Z7	X8	Y8	Z8	X9	Y9	Z9	X10	Y10	Z10	X11	Y11	Z11	X12	Y12	Z12	X13	Y13	Z13	X14	Y14	Z14	X15	Y15	Z15	X16	Y16	Z16	X17	Y17	Z17	X18	Y18	Z18	X19	Y19	Z19	X20	Y20	Z20	X21	Y21	Z21
113	1.8833333333333333	1.3898043931237336	1.1907344655459657	0.4464013148572522	1.8393217303573124	1.1384513509007406	0.41829260425021264	2.1532735208158176	0.908462519320687	0.3478984428918744	2.4539020909475893	1.171013974471217	0.3383833190379248	2.413982614406995	1.0954882223467504	0.43063832628055926	2.1518691649387174	0.8466013313148676	0.33523865894874705	1.3629707523656212	1.1467131303766833	0.18826378722176718	1.7730735766439878	1.0413608141549915	0.19169544467942018	2.1450718309322783	0.9316733660166895	0.19302243830763705	2.4739823405015855	1.2414132245356146	0.16224924998310747	2.3676672714315696	1.1480461196012026	0.11777581467069119	2.1123940669535264	0.7633398257911463	0.1999474064898242	0.6597788088491945	1.2438656474320158	0.3405040809495685	0.31826588917141585	1.375180932735712	0.33883144602787674	0.5286949198055529	1.6077329522819919	0.280527168484171	0.7719417697210212	1.2847914718943074	0.5568125491374061	1.1511946954962546	1.3032085488939718	0.5853717117560846	1.4116223525222091	1.5694654863121607	0.3445725213822555	0.7240233449165209	1.138539212455112	0.17033497535638256	1.0163288559799102	1.0434390030333422	0.08336640755699676	1.356561362732291	1.4198525121972572	0.17585011287281585
114	1.9	1.3925379399156086	1.1923598229123398	0.4457824163136104	1.8447069483265428	1.1452445039795385	0.4181537207923476	2.1575075873120126	0.9132454153954288	0.34870690264692317	2.4524069484636515	1.1670234242371633	0.33796512114913124	2.4174523002494976	1.099005865928582	0.4301336241635447	2.154205640409528	0.849744923370715	0.33575855754537764	1.3629360008049454	1.1376167057721618	0.19003008383421047	1.7750719153327283	1.0439040207736783	0.19120007989481635	2.1467273668850444	0.9323359171532999	0.1929752280560273	2.473495626115837	1.2394380832091343	0.16157389081906454	2.364424109000924	1.1419416445930999	0.11680868379755022	2.1131202666132944	0.7635483346966674	0.19997816366397442	0.6603097831885238	1.2399510307899415	0.34107151455976137	0.3175367528299591	1.3697335767660619	0.3390554594175621	0.5273380467283868	1.6046560735786293	0.27772118954713104	0.7734894008876096	1.2929769614446118	0.5564390641769053	1.1618524941952018	1.3475950692909715	0.5814579402424869	1.4073074086831363	1.614041171843876	0.32558351449831946	0.7228594865174387	1.1390498271490386	0.1732294131572275	1.0058865111643662	1.0279445311360265	0.08255470804871584	1.3510051678611237	1.4230080646471865	0.162129571393191
115	1.9166666666666667	1.3937698074372462	1.1928268178368961	0.4454881530356873	1.8497928587679073	1.1522484987691197	0.4177513965241433	2.162092305804582	0.9181887310360393	0.34953334300155914	2.451689492085098	1.1637494567974238	0.3377767723327059	2.4213498402228235	1.103046181755504	0.4297308571922925	2.1568785288895667	0.8530141429043663	0.3363605541735453	1.3636067533800076	1.131452527984727	0.19132157911668418	1.7784211671203836	1.0487834381719563	0.19089844076246004	2.1475509877791015	0.9325876473532984	0.19286066281502867	2.474359913172588	1.238733113638938	0.16112927934129828	2.3613811528601705	1.135086969044488	0.11584421963857569	2.1119283006651894	0.7610722872015885	0.19994048391359098	0.660934487598006	1.2340350042355142	0.3419462882371377	0.3167224851351041	1.366328978007308	0.3400790210191079	0.5263089034766529	1.5975348327833965	0.27613783962267346	0.7753568753356552	1.3014389848556618	0.5560423831548433	1.1721562632501858	1.394361194287679	0.5772447085829392	1.3989531962987074	1.6631758135784092	0.3051114437896211	0.7215005561912375	1.1384185754048184	0.17598053807576994	0.995223308670331	1.0084453978983619	0.08177390988439845	1.342841213665819	1.4242689770578467	0.14567461999983525
116	1.9333333333333331	1.3934751560688674	1.1927844701999066	0.44547257617945557	1.85361040873897	1.1582291721288929	0.4170637989000585	2.1653840377555644	0.9214416048999341	0.34994186488325135	2.4507300274693575	1.159992342786839	0.33736517718092707	2.424548479356899	1.1060606365724308	0.4290092700203614	2.1591628969095975	0.8556182320899512	0.3369523042812864	1.364409547834809	1.128294358488674	0.19212043406220555	1.7826285401493598	1.0553933667943804	0.19092071505918645	2.1478660256254827	0.9327053306503037	0.1927399632100506	2.47645277074066	1.239535093080597	0.16072202215319653	2.3606024196892177	1.131224924516029	0.11538596827942191	2.109704231977739	0.7574067986946117	0.20008698925919832	0.6615099717249169	1.2257655770302356	0.34328968187775344	0.31566736507604626	1.366581109752239	0.3419365725508048	0.5259098053974467	1.5868207446613858	0.2760570609075576	0.7776147625648623	1.3093716757866922	0.5558389481543032	1.1814909457151512	1.440259546250001	0.5724505993914315	1.385966892983903	1.7184197239793022	0.28494049553606726	0.7201918928377079	1.1342432820117834	0.1787086261034312	0.9851282981184569	0.9867066911481144	0.08111069111044007	1.3320569962143405	1.4183312770113194	0.1275208014274447
117	1.95	1.3915546223827837	1.1926207234271258	0.44564604606378966	1.8557812546391559	1.1629063097234007	0.4165229298891105	2.1667584443152306	0.9225812967932486	0.34978638765488046	2.4493602330686546	1.1560007803007935	0.3364746073480928	2.4265781858007793	1.1074532383448978	0.4275718412719915	2.1605825201317845	0.857414564904709	0.3375959818369332	1.3640096979239842	1.1265805030723288	0.19273804834307653	1.7867570566360698	1.0624871632911552	0.1911209277156639	2.148120956177144	0.9326642088118628	0.19264287241670616	2.47954469317276	1.2420437205089963	0.16016307524477452	2.363521853793862	1.1329369110757053	0.11578433769661596	2.107493522411218	0.7538017756473965	0.20043729802375831	0.6620323133075381	1.2152734159716483	0.34519833783775394	0.31440752972951586	1.3716440676870771	0.34449520677641876	0.5263143566548505	1.57322561709325	0.2772843527389135	0.7802830446648477	1.3168090752980444	0.5560439903244109	1.190201617855549	1.4852764474273878	0.5665280188847074	1.3685664760832412	1.785970226657482	0.26684055063162954	0.7191678684226107	1.1261521734706346	0.18164796259490457	0.9763649454517759	0.9650060441909404	0.08065175215505019	1.3193319974743871	1.4009026378717957	0.10890467307608309
118	1.9666666666666663	1.3876739650993661	1.192534692727736	0.44582062821694673	1.8560301044096934	1.1663567877459466	0.41658150061046917	2.167309651933985	0.9232359682413588	0.3493278759881847	2.448772222114216	1.1538754758947574	0.3352818214109734	2.4279780870336025	1.108064676800737	0.42540705395556055	2.1612122210181584	0.8587561205279395	0.338412694764963	1.3606989785556176	1.1243841871372373	0.19353936400426058	1.7897402424706579	1.0689096078970415	0.19128772111522369	2.1486895698331177	0.9322242130382175	0.1925935860205229	2.483354520481213	1.246232133902875	0.15942277244704164	2.370122886234942	1.1402237589777862	0.11705721127842744	2.106015148254522	0.7507070393933954	0.20085221658074276	0.662610010370783	1.2030515184971402	0.347666150770458	0.3132547021637233	1.3809645319358874	0.3474758369177974	0.5275662217820192	1.558111358252942	0.27926168215609937	0.7832486956748221	1.3239543303092145	0.5567091612365596	1.1992562981413437	1.5330009621771805	0.558816030420084	1.3477115963496415	1.8736083863139277	0.25229439845390883	0.7185244692701804	1.115737413447947	0.18499406763861204	0.9693013657133305	0.9444619489599914	0.0805225744722806	1.3055287734727483	1.3713971178767614	0.09074053213605913
119	1.9833333333333332	1.381478987022011	1.1930457323602282	0.4456732088419782	1.8539241657489751	1.1683322913647702	0.4172500793669509	2.1688651641039733	0.9257509130651418	0.34892024312530356	2.450586144546894	1.1560357153399177	0.33416428722539837	2.4302691749938976	1.1102117466841492	0.42291969643853145	2.1616122831585436	0.8601209323089098	0.3393821430253985	1.3531351122726936	1.1208298228478417	0.19462464091374454	1.7907401258739473	1.0740080289087615	0.1913037105933435	2.1497026812272906	0.9311525791815227	0.19259702938504525	2.4877725979846517	1.2518814910831495	0.15867262698119838	2.3788941403906607	1.1504369692954053	0.11886273326733801	2.105497651717734	0.7479846454722743	0.2011906353162026	0.6633874977431427	1.1896099036658598	0.35065484923564694	0.3126571179042644	1.3925604919877044	0.3505015416668343	0.5296064839108857	1.5432016331610385	0.2814018927792966	0.7862422095676772	1.329954392326925	0.557672216477672	1.2092936435295756	1.5876876961823625	0.5486248204366732	1.3239683836706728	1.9827766021245694	0.24246532425887854	0.7181548518436414	1.105110191476087	0.18885335681727472	0.9637684013942058	0.9254229578659338	0.08099144260515866	1.2912057865485456	1.3344350613042977	0.07329383177989035
120	2.0	1.3731118452437623	1.1950373664395413	0.44487366560102576	1.8496531470275326	1.168783443165771	0.41808324812521064	2.172443560605621	0.931206805299562	0.34862357710857184	2.455610998237924	1.1635091948579521	0.33339111011405903	2.4351551611370317	1.1165329636819323	0.4206592740175229	2.162560235877581	0.8620006814247965	0.34027134654878216	1.3412484001639275	1.1164457370302223	0.195768438240707	1.7896095029847552	1.0778467272492462	0.1909838191960047	2.1510777764971856	0.929551570007455	0.1926155399814597	2.492853429026411	1.2587094138107524	0.1581114137905436	2.387601953101219	1.1598395290006507	0.12064627656757387	2.1058417221802066	0.7455589750554379	0.2013553122996585	0.6645771743670313	1.1757528043197363	0.35411827014617353	0.31300312873938685	1.4041782532619878	0.35322128294499416	0.5323409581335843	1.5299000685907433	0.2833115699855932	0.7889882331866351	1.3329140929821583	0.5586870961499487	1.2195351473697902	1.6487949108487638	0.535413892947354	1.2966880434805748	2.1038900120233466	0.23816696722747316	0.7177846860013757	1.0955421290734624	0.19328297761554764	0.9593829650943261	0.9090983963653783	0.08248053593572029	1.276575387508206	1.297889733141368	0.056146225202230955
